<?xml version="1.0" encoding="utf-8"?>
<!-- Generator: Adobe Illustrator 25.2.3, SVG Export Plug-In . SVG Version: 6.00 Build 0)  -->
<svg version="1.1" id="Layer_2_1_" xmlns="http://www.w3.org/2000/svg" xmlns:xlink="http://www.w3.org/1999/xlink" x="0px" y="0px"
	 viewBox="0 0 531.4 276.4" enable-background="new 0 0 531.4 276.4" xml:space="preserve">
<g>
	<g>
		<g>
			
				<radialGradient id="SVGID_1_" cx="1315.9603" cy="-1231.0371" r="105.0436" gradientTransform="matrix(0.6394 0 0 -0.6394 -728.9526 -735.7336)" gradientUnits="userSpaceOnUse">
				<stop  offset="0.2584" style="stop-color:#FEF7EE"/>
				<stop  offset="0.9382" style="stop-color:#F0A417"/>
			</radialGradient>
			<path fill="url(#SVGID_1_)" d="M39.9,69.7c0-30.5,24.8-55.3,55.3-55.3s55.3,24.8,55.3,55.3S125.7,125,95.2,125
				S39.9,100.3,39.9,69.7z"/>
		</g>
		<path fill="#141C36" d="M281.4,196.3c0-6.7,4.8-12,9.9-12c6.6,0,12,7.6,12,16.5c0,7.8-5.2,12.4-9.8,12.4
			C286.8,213.2,281.4,205.6,281.4,196.3z M275.6,198.9c0,9.1,7.4,16.1,17.1,16.1c9.3,0,16.5-7.1,16.5-16.2c0-9.3-7.2-16.3-16.7-16.3
			C284.3,182.3,275.6,188.2,275.6,198.9z"/>
		<path fill="#141C36" d="M345.2,214.8l-9.3-22l-9.4,22h-2.2l-11.5-26.1c-1.1-2.4-1.2-3.5-4.8-4v-1.3h13.2v1.3
			c-4.6,0.2-3.9,1.6-2.3,5.2l8.4,18.8l7.7-18.1c-1.7-4-3-5.4-5.7-5.7l-0.9-0.2v-1.3h14.1v1.3c-3.8,0.1-4,1.2-2.3,5.1l7.7,18.5
			l7.4-18.2c1.7-4.1,1.3-5.5-3.5-5.5v-1.3h11.1v1.3c-2.9,0.4-3.8,1.8-5.4,5.6l-10,24.5L345.2,214.8L345.2,214.8z"/>
		<path fill="#141C36" d="M383.5,192.2c1.8-7.2,5.7-8.4,8.3-8.4c3.8,0,6.8,3.3,7.7,8.4H383.5z M405.9,194.3c0,0-2.3-12-12.8-12
			c-9.5,0-15,8.4-15,16.7c0,9,5.9,16,13.5,16c5.7,0,10.6-3.9,13.9-8l-0.9-1c-2.9,3.5-6,5.1-9.9,5.1c-6.1,0-11.8-5.5-11.8-13.5
			c0-1,0.1-2.1,0.4-3.3H405.9L405.9,194.3z"/>
		<path fill="#141C36" d="M465.5,194.4c0,5.4-2.9,9.1-7.4,9.1c-5.9,0-8.3-6.1-8.3-10.7c0-7.2,4.6-8.9,7.6-8.9
			C462,183.9,465.5,187.7,465.5,194.4z M466.9,185.5c-2.1-2.1-5.1-3.2-8.7-3.2c-7.7,0-13.7,5.2-13.7,12c0,4.4,2.7,7.8,7.4,9.6
			c-2.7,2.1-7.9,2.2-7.9,5.7c0,2.4,3.2,5.1,7.4,5.5c-3.9,1.5-8.3,5.1-8.3,9.6c0,3.8,3.9,7.4,12,7.4c14.4,0,21.2-7.8,21.2-12.8
			c0-1.6-0.5-3.5-2.3-5.5c-2.3-2.3-5.4-2.7-14.1-2.8c-7.8-0.1-11.1-0.9-11.1-2.8c0-1.8,3.5-2.7,4.8-4c1.5,0.5,2.1,0.6,3.5,0.6
			c8.7,0,13.7-5.5,13.7-11.3c0-2.4-0.9-4.1-1.3-5c5.4-1,4.9-3.9,4.9-3.9L466.9,185.5z M448,222.2c0-3,2.8-5.5,5-6.7
			c2.3,0.4,12.1,0.4,14.1,0.6c2.8,0.2,5.2,1.7,5.2,4.6c0,4.9-6.2,9.3-12.8,9.3C453.1,230,448,225.9,448,222.2z"/>
		<path fill="#141C36" d="M481.6,192.2c1.8-7.2,5.7-8.4,8.3-8.4c3.8,0,6.8,3.3,7.7,8.4H481.6z M504,194.3c0,0-2.3-12-12.8-12
			c-9.5,0-15,8.4-15,16.7c0,9,5.9,16,13.5,16c5.7,0,10.6-3.9,13.9-8l-0.9-1c-2.9,3.5-6,5.1-9.9,5.1c-6.2,0-11.8-5.5-11.8-13.5
			c0-1,0.1-2.1,0.2-3.3H504L504,194.3z"/>
		<path fill="#141C36" d="M61.6,208c0,3.2,1.5,4.6,4.5,4.6h0.4v1.5H51v-1.5c0.9,0,0.7,0,1.3-0.1c3-0.5,4-2,4-5.1v-35.7
			c0-2.2-0.2-3.5-2.7-3l-2.2,0.5V168l9-3.2h1.2L61.6,208L61.6,208L61.6,208z"/>
		<path fill="#141C36" d="M175.9,208c0,3.2,1.5,4.6,4.5,4.6h0.4v1.5h-15.5v-1.5c0.9,0,0.7,0,1.3-0.1c3-0.5,4-2,4-5.1v-35.7
			c0-2.2-0.2-3.5-2.7-3l-2.2,0.5V168l9-3.2h1.2V208L175.9,208L175.9,208z"/>
		<path fill="#141C36" d="M373,208c0,3.2,1.5,4.6,4.5,4.6h0.4v1.5h-15.6v-1.5c0.9,0,0.7,0,1.3-0.1c3-0.5,4-2,4-5.1v-35.7
			c0-2.2-0.2-3.5-2.7-3l-2.2,0.5V168l9-3.2h1.2V208H373z"/>
		<path fill="#141C36" d="M72.9,196.3c0-6.7,4.8-12,9.9-12c6.6,0,12,7.6,12,16.5c0,7.8-5.2,12.4-9.8,12.4
			C78.2,213.1,72.9,205.6,72.9,196.3z M67,198.9c0,9.1,7.4,16.1,17.1,16.1c9.3,0,16.5-7.1,16.5-16.2c0-9.3-7.2-16.3-16.7-16.3
			C75.8,182.3,67,188.1,67,198.9z"/>
		<path fill="#141C36" d="M110.3,189.7c3.5-2.4,6.3-3.7,8.7-3.7c6,0,10.6,5.9,10.6,13.7s-4.4,13.2-10.9,13.2c-6,0-8.5-4.3-8.5-8.2
			L110.3,189.7L110.3,189.7z M110.3,164.7h-1.2l-8.4,3.2v1.3l1.6-0.5c2.8-0.4,2.8,0.5,2.8,4.5v40.2c5,1,8,1.5,11.6,1.5
			c10.4,0,18.2-7.7,18.2-17.6c0-8.2-5.9-15-12.8-15c-2.9,0-6.2,1.5-11.7,5.5v-23.1H110.3z"/>
		<path fill="#141C36" d="M154.6,208.8c-8.4,6.7-12,1.6-12.6-1.2c-0.7-3.2,0.6-7.9,5.5-9.9c2-0.7,5.2-2,7.1-2.3V208.8z M141.8,191.9
			c1.7-1.5,2-2.9,2-3.4c0-1.6,2.3-3.8,5-3.8c1.7,0,3.4,1,4.5,2.3c1.3,1.6,1.3,2.8,1.3,5v2.1c-8,1.5-17.7,3-17.7,13.7
			c0,3.8,3.8,7.4,8.5,7.4c2.2,0,3.8-0.4,9.3-4.8c0.1,1.2,0.4,4.6,3.7,4.8c1.3,0,2.8,0,6.2-3l-0.4-1.2c-2,1.6-4.3,3.2-4.3-7.1v-10.4
			c0-4,0-5-1.2-6.7c-2.2-3-6-4.1-8.4-4.1c-5.2,0-11.8,6.3-11.8,9C138.5,193.3,140.9,192.6,141.8,191.9z"/>
		<path fill="#141C36" d="M47,193.3H31.5v1.3h2.9c4.6,0,6.2,1.5,6.2,6v9.8c-4.4,2.2-8.3,2.9-12,2.9c-8.9,0-20.1-7.1-20.1-23.1
			c0-12.6,7-23.9,20.7-23.9c7.2,0,13.9,3,16,12.8h1.6v-12.6h-1.1c-0.5,0.4-1.1,0.6-1.8,0.6c-1.6,0-7.2-2.7-15.5-2.7
			c-19,0-27.2,14.6-27.2,26.3c0,11.3,7.9,24.5,25,24.5c3.3,0,13.2-1,20.9-4.9L47,193.3L47,193.3z"/>
		<path fill="#141C36" d="M275.7,212.6c-3.2,0-3.9-0.9-4-3.2c-0.1-3-0.4-5.1-0.4-15.4c0-7.8-3-11.7-8.3-11.7
			c-3.8,0-8.2,2.9-13.4,6.1v-6.1h-1.2l-7.9,3.3v1.2l1.5-0.4c2.8-0.6,2.6,1.8,2.6,4.6v16.3c0,2.2-1,3.9-2.9,4.5
			c-2.1,0.6-3.8-1-4.6-1.8c-0.9-0.9-2-2.1-3.3-3.8l-17.7-22.3l0,0l15.9-14.3c2.2-2,4.3-2.6,9.1-2.6v-1.5h-18.5v1.5
			c4.1,0,4.9,0.9,4.4,2.4c-0.4,1.1-3.8,4.3-3.8,4.3l-16.7,15v-14.1l0,0v-1.2c0-4.6,1.3-6.1,6-6.1h0.7v-1.5h-19v1.5h0.4
			c4.1,0,6.2,1,6.2,5.6v34.2c0,4-1.2,5.7-6.2,5.7h-0.4v1.5h19.4v-1.6l0,0c-4.9,0-7-1.6-7-6.5v-11l0,0v-2.7l4.9-4.4l16.5,21.2
			c0.4,0.5,0.5,0.9,0.5,1.2c0.1,1.5-0.6,2.1-4.1,2.2v1.5h14.8h7.1h7.6v-1.5c-4.3,0-4.3-1-4.3-5.2v-16.8c4-2.8,7.8-5,10.4-5
			c3.2,0,6.1,2,6.1,8.2c0,10.4,0.9,16.1-0.6,17.6c-0.9,0.9-1.2,1.5-3.4,1.5v1.5h13.8v-1.9H275.7z"/>
		<path fill="#141C36" d="M438.5,164.7h-1.2l-8.4,3.2v1.3l1.6-0.4c2.4-0.5,2.8,0.4,2.8,3.3l0,0v11.3c-10.6-3.5-24.5,2-24.5,16.3
			c0,10,7.8,15.2,18.2,15.2c3.5,0,6.6-0.5,11.6-1.5v-40.2C438.5,172.8,438.5,164.7,438.5,164.7z M433.3,204.5c0,3.9-2.6,8.2-8.5,8.2
			c-6.3,0-10.9-5.4-10.9-13.2c0-13.4,12.2-17.3,19.3-14.3v19.3H433.3z"/>
		<g>
			<g>
				<path fill="#141C36" d="M58.6,127.7c10.6,4,23.2,6.3,36.7,6.3c13.9,0,26.7-2.4,37.6-6.7c-10.7,7.1-23.7,11.1-37.6,11.1
					C81.8,138.4,69.2,134.4,58.6,127.7z"/>
				<path fill="#141C36" d="M37.1,32.8c-4,10.6-6.3,23.2-6.3,36.7c0,13.9,2.4,26.7,6.7,37.6c-7.1-10.7-11.1-23.7-11.1-37.6
					C26.5,56,30.4,43.4,37.1,32.8z"/>
				<path fill="#141C36" d="M155.5,36.7c1.7,3,3.2,6.2,4.3,9.5c0,0-2.9-6.8-33.1-9.3c0,0-1.2-9.9-1.5-12
					C125.4,25,150.8,28.4,155.5,36.7z"/>
				<path fill="#141C36" d="M97,67V51.5c0,0,15-0.5,38.3,1.2c23.3,1.6,27.7,4.9,27.7,4.9c0.6,3.4,1,6.8,1.1,10.2
					c0,0-12.4-0.9-25-0.9C126.4,67,97,67,97,67z"/>
				<path fill="#141C36" d="M65.2,84l0.6,14.3c0,0,4.3,1.6,47.3,0.5c43.1-1.2,47.7-8.3,47.7-8.3c1.1-3.4,2-7.1,2.4-10.7
					c0,0-1.5,2.6-18.4,3.4C127.9,84,99.9,85.1,65.2,84z"/>
				<path fill="#141C36" d="M148.4,113.3c1.1-1,4.9-6.6,7-10.1c0,0-10,11-62.1,11c-31.1,0-49-5.9-49-5.9c0.5,2.2,3.3,9,3.3,9
					c23.9,10,59.4,9,77.6,5.2C143.3,118.8,147.3,114.3,148.4,113.3z"/>
				<path fill="#141C36" d="M123.6,16.7c3.9,0.7,10.6,2.6,10.6,2.6c-4-9.3-8.3-11.1-8.3-11.1c-2.6-1.3-5.4-2.4-8.2-3.4
					C117.9,4.8,121.5,7.3,123.6,16.7z"/>
				<path fill="#141C36" d="M111.2,39.3c0-4.5-1-21.7-2-28.5c-1.1-6.8-2.9-8.9-2.9-8.9C103,1.4,99.6,1,96.1,1c0,0,0.5,22.2,0.5,38.3
					H111.2z"/>
				<path fill="#141C36" d="M64.7,70.8c0-26.2,1.5-40.5,3.9-52.9S75.1,4,75.1,4c3-1,6.2-1.7,9.5-2.2c0,0-1.7,1.8-2.7,7.9
					s-2.8,32.2-2.8,61.1C79.1,70.8,64.7,70.8,64.7,70.8z"/>
				<path fill="#141C36" d="M41.3,97.9l10.2,1.7c-2.1-14.4-2.8-41.5,0.7-64.2C55.8,12.7,62.7,9,62.7,9c-3.8,2.1-9.5,5.9-10.7,7.2
					c-1.3,1.3-6.8,5.1-10.9,27.3C37.5,63.7,38.8,77.1,41.3,97.9z"/>
			</g>
		</g>
		<g>
			<path fill="#141C36" d="M5.3,267.2c-1.1,0-2.1-0.4-2.8-1c-0.7-0.7-1.1-1.6-1.1-2.8c0-1.1,0.4-2.2,1.2-2.9c0.9-0.9,2.3-1.5,4.4-2
				l3.4-0.7v-2.4c0-0.9-0.4-1.6-1-2.1c-0.6-0.6-1.3-0.9-2.2-0.9c-0.9,0-1.5,0.2-1.8,0.7c-0.4,0.5-0.5,1.1-0.5,1.8v1.1l-0.1,0.1h-2
				c-0.4,0-0.6-0.1-0.7-0.2c-0.1-0.1-0.2-0.4-0.2-0.9s0.1-1.1,0.5-1.6s0.9-1,1.5-1.3c0.7-0.5,1.5-0.9,2.2-1.1s1.5-0.4,2.3-0.4
				c0.9,0,1.7,0.1,2.6,0.4c0.9,0.2,1.5,0.6,2.1,1.2c0.5,0.6,0.7,1.3,0.7,2.3v9.9c0.1,0.1,0.4,0.4,0.7,0.4c0.2,0.1,0.7,0.1,1.2,0.1
				h1.2L17,265v0.2c-0.2,0.5-0.7,1-1.3,1.3c-0.6,0.4-1.2,0.6-2.1,0.6s-1.5-0.2-2-0.6s-0.9-1-1.1-1.6h-0.2c-0.6,0.6-1.3,1.1-2.2,1.6
				C7.2,267,6.4,267.2,5.3,267.2z M4.7,262.6c0,1.5,0.9,2.2,2.6,2.2c0.5,0,1,0,1.5-0.1s1.1-0.2,1.7-0.6v-5.2
				c-1.7,0.4-2.9,0.7-3.8,1.1c-0.9,0.4-1.3,0.7-1.6,1.2C4.8,261.6,4.7,262.1,4.7,262.6z"/>
			<path fill="#141C36" d="M34.1,267.2c-1.1,0-2.1-0.1-2.9-0.2c-0.9-0.2-1.6-0.5-2.4-1v-3.9h0.5l1.1,2c0.7,1.3,2,2,3.7,2
				c1,0,1.7-0.2,2.2-0.6s0.7-1,0.7-1.8c0-0.6-0.1-1.1-0.5-1.5s-0.7-0.7-1.3-1c-0.6-0.2-1.3-0.6-2.2-1c-1.2-0.5-2.2-1.1-2.8-1.8
				c-0.6-0.7-1-1.6-1-2.7c0-1,0.2-1.7,0.7-2.4c0.5-0.7,1.2-1.3,2-1.7c0.9-0.5,1.7-0.6,2.6-0.6c0.9,0,1.7,0.1,2.4,0.2
				c0.7,0.2,1.5,0.5,2.2,0.9v3.9h-0.5l-1.2-1.8c-0.7-1.2-1.7-1.8-2.8-1.8c-0.7,0-1.5,0.2-1.8,0.6c-0.5,0.4-0.7,1-0.7,1.6
				c0,0.7,0.2,1.3,0.9,1.7c0.6,0.4,1.5,0.9,2.6,1.3c0.7,0.4,1.3,0.6,2.1,1c0.6,0.4,1.2,0.9,1.6,1.5c0.5,0.6,0.6,1.5,0.6,2.6
				s-0.2,2-0.9,2.7s-1.3,1.3-2.2,1.7C35.8,267,34.9,267.2,34.1,267.2z"/>
			<path fill="#141C36" d="M43.6,266.9v-0.6l2.3-1.1v-20.9l-2.2-1.8v-0.2l5.2-2h0.2v17.4l5.6-4.8v-0.2l-1.7-1.2v-0.6h7v0.6l-2.3,1.2
				l-5.6,4.3l7,8l2.3,1.2v0.6h-5.2L55,265l-5.7-6.7v7l2.4,1v0.6H43.6z"/>
			<path fill="#141C36" d="M63.5,266.9v-0.6l2.3-1.1v-10.6l-2.2-1.8v-0.2l5.2-2H69v14.6l2.2,1.1v0.6H63.5L63.5,266.9z M67.4,246.4
				c-0.6,0-1.2-0.2-1.6-0.6s-0.6-1-0.6-1.6s0.2-1.2,0.6-1.6s1-0.6,1.6-0.6s1.2,0.2,1.6,0.6s0.6,1,0.6,1.6s-0.2,1.2-0.6,1.6
				C68.5,246.3,68,246.4,67.4,246.4z"/>
			<path fill="#141C36" d="M74.7,266.9v-0.6l2.2-1.1v-20.9l-2.1-1.8v-0.2l5.2-2h0.3v24.9l2.2,1.1v0.6H74.7z"/>
			<path fill="#141C36" d="M85.4,266.9v-0.6l2.2-1.1v-20.9l-2.1-1.8v-0.2l5.2-2h0.2v24.9l2.2,1.1v0.6H85.4z"/>
			<path fill="#141C36" d="M102.4,267.2c-1.1,0-2.1-0.1-2.9-0.2c-0.9-0.2-1.6-0.5-2.4-1v-3.9h0.5l1.1,2c0.7,1.3,2,2,3.7,2
				c1,0,1.7-0.2,2.2-0.6s0.7-1,0.7-1.8c0-0.6-0.1-1.1-0.5-1.5s-0.7-0.7-1.3-1c-0.6-0.2-1.3-0.6-2.2-1c-1.2-0.5-2.2-1.1-2.8-1.8
				c-0.6-0.6-1-1.6-1-2.7c0-1,0.2-1.7,0.7-2.4c0.5-0.7,1.2-1.3,2-1.7c0.9-0.5,1.7-0.6,2.6-0.6s1.7,0.1,2.4,0.2
				c0.7,0.2,1.5,0.5,2.2,0.9v3.9h-0.5l-1.2-1.8c-0.7-1.2-1.7-1.8-2.8-1.8c-0.7,0-1.5,0.2-1.8,0.6c-0.5,0.4-0.7,1-0.7,1.6
				c0,0.7,0.2,1.3,0.9,1.7c0.6,0.4,1.5,0.9,2.6,1.3c0.7,0.4,1.3,0.6,2.1,1c0.6,0.4,1.2,0.9,1.6,1.5c0.5,0.6,0.6,1.5,0.6,2.6
				s-0.2,2-0.9,2.7c-0.6,0.7-1.3,1.3-2.2,1.7C104,267,103.2,267.2,102.4,267.2z"/>
			<path fill="#141C36" d="M119.9,267.2c-1.6,0-2.9-0.4-4.1-1.1s-2.1-1.7-2.8-3c-0.7-1.2-1-2.7-1-4.3s0.4-2.9,1-4.3
				c0.7-1.2,1.6-2.3,2.8-2.9c1.2-0.7,2.6-1.1,4.1-1.1c1.6,0,2.9,0.4,4.1,1.1c1.2,0.7,2.1,1.7,2.8,2.9c0.7,1.2,1,2.7,1,4.3
				s-0.4,2.9-1,4.3c-0.7,1.2-1.6,2.3-2.8,3C122.9,266.8,121.5,267.2,119.9,267.2z M120.3,265.7c0.9,0,1.6-0.2,2.2-0.9s1-1.3,1.2-2.3
				s0.4-2,0.4-2.9c0-1.2-0.1-2.4-0.5-3.5c-0.4-1.1-0.9-2.1-1.5-2.8c-0.7-0.7-1.6-1.1-2.7-1.1c-0.9,0-1.6,0.2-2.2,0.9
				c-0.6,0.6-1,1.3-1.3,2.2c-0.2,1-0.4,2-0.4,2.9c0,1.2,0.1,2.4,0.5,3.7c0.4,1.1,0.9,2.1,1.6,2.8
				C118.3,265.3,119.2,265.7,120.3,265.7z"/>
			<path fill="#141C36" d="M131.4,266.9v-0.6l2.3-1.1v-12.7h-2.8v-1.6h2.8v-1.3c0-0.5,0.1-1.1,0.4-1.8c0.2-0.7,0.6-1.6,1.1-2.4
				s1.1-1.7,1.7-2.4c0.7-0.7,1.5-1.3,2.3-1.8c0.9-0.5,1.8-0.7,2.8-0.7c0.2,0,0.5,0,0.7,0.1s0.5,0.1,0.6,0.2c0.7,0.4,1,0.6,1,1
				c0,0.1,0,0.4-0.1,0.6l-0.7,1.8h-0.2l-0.9-0.4c-0.7-0.4-1.5-0.5-2.3-0.5c-1.2,0-2.1,0.4-2.4,1.2c-0.4,0.9-0.6,2.1-0.6,3.8v2.7h8.7
				l2.7-3.9h0.4v3.9h4.8v1.6h-4.8v10.5c0,0.6,0.2,1.1,0.9,1.3c0.5,0.2,1.2,0.4,2,0.4c0.5,0,0.9,0,1.2-0.1c0.4,0,0.7-0.1,1-0.1h0.1
				v0.4c-0.2,0.5-0.7,1.1-1.5,1.5c-0.7,0.5-1.7,0.7-2.8,0.7s-2.1-0.4-2.9-1c-0.9-0.6-1.2-1.5-1.2-2.6v-11.2h-8.3v12.7l2.6,1.1v0.6
				h-8.3L131.4,266.9L131.4,266.9z"/>
			<path fill="#141C36" d="M173.1,267.2c-2.3,0-4.1-0.7-5.5-2.1c-1.3-1.3-2.1-3.3-2.1-5.6c0-1.7,0.4-3.3,1.1-4.6
				c0.7-1.3,1.7-2.4,2.9-3.2c1.2-0.7,2.7-1.1,4.3-1.1c1,0,2,0.1,2.8,0.5c0.9,0.4,1.6,0.7,2.1,1.2c0.4,0.4,0.5,0.7,0.5,1.1
				c0,0.2,0,0.4-0.1,0.5c0,0.1-0.1,0.2-0.4,0.4l-1.5,1.2H177l-1.2-1.6c-0.4-0.5-0.7-0.9-1.2-1.2c-0.5-0.2-1.1-0.5-1.8-0.5
				c-1.2,0-2.2,0.5-2.9,1.6s-1.1,2.4-1.1,4.3c0,1.1,0.1,2.2,0.5,3.2s1,1.7,1.8,2.3s2.1,0.9,3.5,0.9c0.6,0,1.3-0.1,2.1-0.4
				c0.7-0.2,1.6-0.6,2.4-1h0.1v0.4c-0.5,1.1-1.3,2-2.4,2.7C175.8,266.8,174.6,267.2,173.1,267.2z"/>
			<path fill="#141C36" d="M190.7,267.2c-1.6,0-2.9-0.4-4.1-1.1c-1.2-0.7-2.1-1.7-2.8-3c-0.7-1.2-1-2.7-1-4.3s0.4-2.9,1-4.3
				c0.7-1.2,1.6-2.3,2.8-2.9c1.2-0.7,2.6-1.1,4.1-1.1c1.6,0,2.9,0.4,4.1,1.1c1.2,0.7,2.1,1.7,2.8,2.9c0.7,1.2,1,2.7,1,4.3
				s-0.4,2.9-1,4.3c-0.7,1.2-1.6,2.3-2.8,3S192.3,267.2,190.7,267.2z M191,265.7c0.9,0,1.6-0.2,2.2-0.9s1-1.3,1.2-2.3s0.4-2,0.4-2.9
				c0-1.2-0.1-2.4-0.5-3.5c-0.4-1.1-0.9-2.1-1.5-2.8c-0.7-0.7-1.6-1.1-2.7-1.1c-0.9,0-1.6,0.2-2.2,0.9c-0.6,0.6-1,1.3-1.3,2.2
				c-0.2,1-0.4,2-0.4,2.9c0,1.2,0.1,2.4,0.5,3.7c0.4,1.1,0.9,2.1,1.6,2.8C189.1,265.3,189.9,265.7,191,265.7z"/>
			<path fill="#141C36" d="M201.9,266.9v-0.6l2.3-1.1v-10.6l-2.2-1.7v-0.2l4.9-2h0.2l0.4,2.6h0.1c0.9-0.9,1.7-1.6,2.6-2
				c0.9-0.5,1.7-0.6,2.7-0.6c1.1,0,2.1,0.2,2.9,0.7s1.3,1.2,1.6,2.2h0.1c1-1,1.8-1.7,2.7-2.3c0.9-0.5,1.8-0.7,2.8-0.7
				c1.3,0,2.4,0.4,3.3,1.1c0.9,0.7,1.3,1.7,1.3,3.2v10.5l2.3,1.1v0.6H222v-0.6l2.3-1.1v-8.8c0-1-0.2-1.8-0.9-2.3s-1.3-0.7-2.3-0.7
				c-0.7,0-1.5,0.1-2.1,0.4c-0.6,0.2-1.2,0.6-1.7,1.1v10.4l2.3,1.1v0.6h-7.8v-0.6l2.2-1.1v-8.8c0-1-0.2-1.8-0.9-2.3
				s-1.3-0.7-2.2-0.7c-0.6,0-1.2,0.1-1.8,0.2c-0.7,0.2-1.2,0.5-1.6,0.9v10.7l2.2,1.1v0.6L201.9,266.9L201.9,266.9z"/>
			<path fill="#141C36" d="M232.9,274.9v-0.6l2.3-1.1v-18.7l-2.2-1.8v-0.2l4.9-2h0.2l0.2,2.2h0.2c0.9-0.7,1.7-1.3,2.6-1.6
				c0.9-0.4,1.7-0.5,2.7-0.5c1.1,0,2.2,0.4,3.2,1c1,0.6,1.7,1.5,2.2,2.6s0.9,2.4,0.9,4c0,2-0.4,3.5-1.1,4.9
				c-0.7,1.3-1.7,2.4-2.9,3.2c-1.2,0.7-2.6,1.1-4,1.1c-1.2,0-2.4-0.1-3.4-0.4v6.5l2.6,1.1v0.6H233L232.9,274.9L232.9,274.9z
				 M241.8,253.1c-1.1,0-2.2,0.4-3.3,1v10c0.6,0.5,1.2,0.9,2,1.1s1.5,0.2,2.2,0.2s1.3-0.2,2-0.6c0.6-0.4,1.1-1.1,1.5-2
				s0.5-2.1,0.5-3.7c0-1.5-0.2-2.6-0.7-3.5c-0.5-0.9-1.1-1.6-1.8-2C243.2,253.3,242.6,253.1,241.8,253.1z"/>
			<path fill="#141C36" d="M257.4,267.2c-1.1,0-2.1-0.4-2.8-1c-0.7-0.7-1.1-1.6-1.1-2.8c0-1.1,0.4-2.2,1.2-2.9
				c0.9-0.9,2.3-1.5,4.4-2l3.4-0.7v-2.4c0-0.9-0.4-1.6-1-2.1c-0.6-0.6-1.3-0.9-2.2-0.9c-0.9,0-1.5,0.2-1.8,0.7
				c-0.4,0.5-0.5,1.1-0.5,1.8v1.1l-0.1,0.1h-2c-0.4,0-0.6-0.1-0.7-0.2c-0.1-0.1-0.2-0.4-0.2-0.9s0.1-1.1,0.5-1.6s0.9-1,1.5-1.3
				c0.7-0.5,1.5-0.9,2.2-1.1s1.5-0.4,2.3-0.4c0.9,0,1.7,0.1,2.6,0.4c0.9,0.2,1.5,0.6,2.1,1.2c0.5,0.6,0.7,1.3,0.7,2.3v9.9
				c0.1,0.1,0.4,0.4,0.7,0.4c0.2,0.1,0.7,0.1,1.2,0.1h1.2l0.1,0.1v0.2c-0.2,0.5-0.7,1-1.3,1.3c-0.6,0.4-1.2,0.6-2.1,0.6
				s-1.5-0.2-2-0.6s-0.9-1-1.1-1.6h-0.2c-0.6,0.6-1.3,1.1-2.2,1.6C259.3,267,258.4,267.2,257.4,267.2z M256.7,262.6
				c0,1.5,0.9,2.2,2.6,2.2c0.5,0,1,0,1.5-0.1s1.1-0.2,1.7-0.6v-5.2c-1.7,0.4-2.9,0.7-3.8,1.1s-1.3,0.7-1.6,1.2
				C256.8,261.6,256.7,262.1,256.7,262.6z"/>
			<path fill="#141C36" d="M271.2,266.9v-0.6l2.3-1.1v-10.6l-2.2-1.7v-0.2l4.9-2h0.2l0.4,2.6h0.1c0.9-0.9,1.7-1.6,2.6-2
				c0.9-0.5,1.7-0.6,2.8-0.6c1.3,0,2.6,0.4,3.4,1.1c0.9,0.7,1.3,1.7,1.3,3.2v10.5l2.2,1.1v0.6h-7.9v-0.6l2.3-1.1v-8.8
				c0-1-0.4-1.8-1-2.3s-1.5-0.7-2.3-0.7c-0.6,0-1.2,0.1-2,0.2c-0.7,0.2-1.2,0.5-1.7,0.9v10.7l2.3,1.1v0.6h-7.8v-0.3H271.2z"/>
			<path fill="#141C36" d="M293.2,275.3c-0.5,0-0.9-0.1-1-0.2s-0.2-0.4-0.2-0.9v-2l0.1-0.1h1.6c0.6,0,1.1,0,1.3-0.1
				c0.4-0.1,0.6-0.4,1-0.7c0.2-0.4,0.6-1.1,1.1-2.1l1.2-2.7l-6.6-14.1l-2.3-1.1v-0.4h8.8v0.6l-2.8,1.1v0.1l4.5,9.8h0.1l3.7-9.6v-0.2
				l-2.6-1.2v-0.6h7v0.6l-2.6,1.2l-7,17c-0.2,0.5-0.4,1-0.5,1.3c-0.1,0.4-0.4,0.7-0.5,1.1c-0.2,0.4-0.5,0.7-0.9,1.2
				c-0.5,0.7-1,1.2-1.6,1.6C294.5,275.2,293.9,275.3,293.2,275.3z"/>
		</g>
	</g>
	<g>
		<path fill="#141C36" d="M514.9,208h-2.8v-1.6h7.3v1.6h-2.8v7.4h-1.7V208L514.9,208z M520.8,206.4h1.8l2.7,4.3l2.7-4.3h1.8v9h-1.7
			v-6.5l-2.8,4.3h-0.1l-2.8-4.3v6.5h-1.6L520.8,206.4L520.8,206.4z"/>
	</g>
</g>
</svg>
